<svg width="13" height="12" viewBox="0 0 13 12" fill="none" xmlns="http://www.w3.org/2000/svg">
<mask id="path-1-inside-1_6_147" fill="white">
<path d="M12.3733 2.49365C12.1772 2.03952 11.8944 1.628 11.5407 1.28211C11.1868 0.935185 10.7695 0.659492 10.3116 0.470018C9.83676 0.272766 9.32746 0.1718 8.81327 0.172984C8.0919 0.172984 7.38809 0.370519 6.77646 0.74364C6.63014 0.832897 6.49114 0.930933 6.35945 1.03775C6.22776 0.930933 6.08875 0.832897 5.94243 0.74364C5.3308 0.370519 4.62699 0.172984 3.90562 0.172984C3.38618 0.172984 2.88283 0.272483 2.40729 0.470018C1.94783 0.660237 1.53374 0.933859 1.17818 1.28211C0.824075 1.6276 0.541207 2.03923 0.345607 2.49365C0.142219 2.96627 0.0383301 3.46816 0.0383301 3.98468C0.0383301 4.47193 0.137829 4.97967 0.335364 5.49618C0.500708 5.92783 0.73775 6.37558 1.04064 6.82771C1.52057 7.54323 2.18049 8.28947 2.99989 9.04596C4.35776 10.2999 5.70246 11.1662 5.75953 11.2013L6.10631 11.4237C6.25995 11.5217 6.45748 11.5217 6.61112 11.4237L6.9579 11.2013C7.01497 11.1647 8.35821 10.2999 9.71754 9.04596C10.5369 8.28947 11.1969 7.54323 11.6768 6.82771C11.9797 6.37558 12.2182 5.92783 12.3821 5.49618C12.5796 4.97967 12.6791 4.47193 12.6791 3.98468C12.6806 3.46816 12.5767 2.96627 12.3733 2.49365Z"/>
</mask>
<path d="M11.5407 1.28211L10.8407 1.99623L10.8415 1.997L11.5407 1.28211ZM10.3116 0.470018L9.92799 1.39351L9.92928 1.39405L10.3116 0.470018ZM8.81327 0.172984V1.17299L8.81557 1.17298L8.81327 0.172984ZM6.77646 0.74364L7.29722 1.59734L7.29725 1.59733L6.77646 0.74364ZM6.35945 1.03775L5.7295 1.81439L6.35945 2.32534L6.98939 1.81439L6.35945 1.03775ZM5.94243 0.74364L5.42164 1.59733L5.42167 1.59734L5.94243 0.74364ZM2.40729 0.470018L2.78981 1.39396L2.79089 1.39351L2.40729 0.470018ZM1.17818 1.28211L1.87654 1.99786L1.8779 1.99652L1.17818 1.28211ZM0.345607 2.49365L-0.572917 2.09829L-0.572949 2.09836L0.345607 2.49365ZM0.335364 5.49618L-0.598662 5.85339L-0.59847 5.85389L0.335364 5.49618ZM1.04064 6.82771L0.209829 7.38428L0.210157 7.38476L1.04064 6.82771ZM2.99989 9.04596L3.67833 8.31131L3.67822 8.31121L2.99989 9.04596ZM5.75953 11.2013L6.29939 10.3595L6.29155 10.3545L6.28362 10.3496L5.75953 11.2013ZM6.10631 11.4237L5.56645 12.2655L5.5684 12.2667L6.10631 11.4237ZM6.61112 11.4237L7.14904 12.2667L7.15098 12.2654L6.61112 11.4237ZM6.9579 11.2013L6.41824 10.3594L6.41805 10.3595L6.9579 11.2013ZM9.71754 9.04596L10.3956 9.78098L10.3959 9.78071L9.71754 9.04596ZM11.6768 6.82771L12.5073 7.38476L12.5076 7.38428L11.6768 6.82771ZM12.3821 5.49618L11.448 5.13898L11.4472 5.14124L12.3821 5.49618ZM12.6791 3.98468L11.6791 3.98184V3.98468H12.6791ZM13.2913 2.09717C13.0437 1.52369 12.6865 1.004 12.2399 0.567207L10.8415 1.997C11.1022 2.25199 11.3107 2.55536 11.4552 2.89014L13.2913 2.09717ZM12.2407 0.567987C11.7954 0.131393 11.2702 -0.215562 10.6939 -0.454011L9.92928 1.39405C10.2689 1.53454 10.5783 1.73898 10.8407 1.99623L12.2407 0.567987ZM10.6952 -0.453474C10.0981 -0.701531 9.45759 -0.828502 8.81097 -0.827013L8.81557 1.17298C9.19732 1.1721 9.57544 1.24706 9.92799 1.39351L10.6952 -0.453474ZM8.81327 -0.827016C7.90899 -0.827016 7.02487 -0.579291 6.25568 -0.110045L7.29725 1.59733C7.75131 1.32033 8.27481 1.17298 8.81327 1.17298V-0.827016ZM6.25571 -0.110063C6.07172 0.00216602 5.8962 0.125896 5.7295 0.261106L6.98939 1.81439C7.08607 1.73597 7.18856 1.66363 7.29722 1.59734L6.25571 -0.110063ZM6.98939 0.261106C6.82269 0.125896 6.64717 0.00216602 6.46319 -0.110063L5.42167 1.59734C5.53033 1.66363 5.63282 1.73597 5.7295 1.81439L6.98939 0.261106ZM6.46322 -0.110045C5.69402 -0.579291 4.8099 -0.827016 3.90562 -0.827016V1.17298C4.44408 1.17298 4.96758 1.32033 5.42164 1.59733L6.46322 -0.110045ZM3.90562 -0.827016C3.25627 -0.827016 2.62242 -0.702185 2.02368 -0.453479L2.79089 1.39351C3.14325 1.24715 3.51609 1.17298 3.90562 1.17298V-0.827016ZM2.02476 -0.453927C1.44701 -0.21473 0.925273 0.130069 0.478461 0.567687L1.8779 1.99652C2.14221 1.73765 2.44866 1.5352 2.78981 1.39396L2.02476 -0.453927ZM0.479823 0.566356C0.0320786 1.00322 -0.325592 1.5237 -0.572917 2.09829L1.26413 2.88902C1.40801 2.55477 1.61607 2.25199 1.87654 1.99786L0.479823 0.566356ZM-0.572949 2.09836C-0.829925 2.69551 -0.96167 3.33187 -0.96167 3.98468H1.03833C1.03833 3.60445 1.11436 3.23704 1.26416 2.88895L-0.572949 2.09836ZM-0.96167 3.98468C-0.96167 4.60884 -0.834185 5.23754 -0.598662 5.85339L1.26939 5.13898C1.10984 4.72179 1.03833 4.33501 1.03833 3.98468H-0.96167ZM-0.59847 5.85389C-0.40218 6.36633 -0.127728 6.88039 0.20983 7.38428L1.87144 6.27115C1.60323 5.87077 1.4036 5.48934 1.2692 5.13848L-0.59847 5.85389ZM0.210157 7.38476C0.744553 8.18147 1.46103 8.98626 2.32156 9.78071L3.67822 8.31121C2.89994 7.59269 2.29659 6.90499 1.87112 6.27067L0.210157 7.38476ZM2.32145 9.78061C3.73968 11.0903 5.14043 11.9945 5.23543 12.0529L6.28362 10.3496C6.28895 10.3529 6.20906 10.3023 6.058 10.1994C5.9117 10.0998 5.70594 9.95618 5.46037 9.77539C4.96769 9.41268 4.32263 8.90631 3.67833 8.31131L2.32145 9.78061ZM5.21967 12.043L5.56645 12.2654L6.64617 10.5819L6.29939 10.3595L5.21967 12.043ZM5.5684 12.2667C6.05009 12.5741 6.66734 12.5741 7.14903 12.2667L6.07321 10.5807C6.24763 10.4694 6.4698 10.4694 6.64422 10.5807L5.5684 12.2667ZM7.15098 12.2654L7.49776 12.043L6.41805 10.3595L6.07126 10.5819L7.15098 12.2654ZM7.49757 12.0432C7.57444 11.9939 8.97365 11.0927 10.3956 9.78098L9.03949 8.31094C7.74276 9.50717 6.4555 10.3355 6.41824 10.3594L7.49757 12.0432ZM10.3959 9.78071C11.2564 8.98626 11.9729 8.18147 12.5073 7.38476L10.8463 6.27067C10.4208 6.90499 9.81749 7.59269 9.03921 8.31121L10.3959 9.78071ZM12.5076 7.38428C12.844 6.88213 13.1211 6.36701 13.317 5.85112L11.4472 5.14124C11.3153 5.48865 11.1154 5.86903 10.846 6.27115L12.5076 7.38428ZM13.3161 5.85339C13.5516 5.23754 13.6791 4.60884 13.6791 3.98468H11.6791C11.6791 4.33501 11.6076 4.72179 11.448 5.13898L13.3161 5.85339ZM13.6791 3.98751C13.681 3.33278 13.5488 2.69549 13.2918 2.09836L11.4547 2.88895C11.6045 3.23706 11.6802 3.60354 11.6791 3.98184L13.6791 3.98751Z" fill="#00A2FF" mask="url(#path-1-inside-1_6_147)"/>
</svg>
